<svg xmlns="http://www.w3.org/2000/svg" viewBox="0 0 700 260" width="700" height="260">
<defs>
  <linearGradient id="gold" x1="0" y1="0" x2="0" y2="1">
    <stop offset="0" stop-color="#EBD9B2"/><stop offset="0.5" stop-color="#C89C55"/><stop offset="1" stop-color="#986E2C"/>
  </linearGradient>
  <linearGradient id="goldH" x1="0" y1="0" x2="1" y2="0">
    <stop offset="0" stop-color="#B98A4A"/><stop offset="0.5" stop-color="#E4CFA4"/><stop offset="1" stop-color="#B98A4A"/>
  </linearGradient>
  <radialGradient id="orb" cx="0.38" cy="0.34" r="0.8">
    <stop offset="0" stop-color="#FBF3E1"/><stop offset="0.55" stop-color="#D8B678"/><stop offset="1" stop-color="#9A7130"/>
  </radialGradient>
</defs>
<g stroke="#67251A" stroke-width="2.6" stroke-linejoin="round" stroke-linecap="round">

  <!-- ===== TAIL : swept flame fletching ===== -->
  <path d="M250,123 C 205,114 172,106 138,90 C 126,104 130,118 152,126 C 184,130 216,128 250,131 Z" fill="url(#gold)"/>
  <path d="M250,137 C 205,146 172,154 138,170 C 126,156 130,142 152,134 C 184,130 216,132 250,129 Z" fill="url(#gold)"/>
  <path d="M138,90 C 126,80 116,82 112,92 C 121,89 129,92 138,98 Z" fill="url(#gold)"/>
  <path d="M138,170 C 126,180 116,178 112,168 C 121,171 129,168 138,162 Z" fill="url(#gold)"/>
  <path d="M150,130 L134,124 L138,130 L134,136 Z" fill="url(#gold)"/>

  <!-- ===== SHAFT ===== -->
  <path d="M175,124 C 300,121 430,121 545,126 C 430,131 300,131 175,136 Z" fill="url(#gold)"/>

  <!-- ===== BODY ornament: lotus + sphere ===== -->
  <path d="M300,105 L312,105 L312,155 L300,155 Z" fill="url(#goldH)"/>
  <path d="M348,105 L360,105 L360,155 L348,155 Z" fill="url(#goldH)"/>
  <path d="M348,130 C 348,109 338,101 330,101 C 338,113 338,147 330,159 C 338,159 348,151 348,130 Z" fill="url(#gold)"/>
  <path d="M312,130 C 312,109 322,101 330,101 C 322,113 322,147 330,159 C 322,159 312,151 312,130 Z" fill="url(#gold)"/>
  <circle cx="330" cy="130" r="23" fill="url(#orb)"/>
  <circle cx="330" cy="130" r="23" fill="none" stroke="#67251A" stroke-width="2.6"/>
  <circle cx="330" cy="130" r="12" fill="none" stroke="#67251A" stroke-width="1.3" opacity="0.5"/>

  <!-- head collar band -->
  <path d="M534,108 L548,108 L548,152 L534,152 Z" fill="url(#goldH)"/>

  <!-- ===== HEAD : vajra-prong chevron arrowhead ===== -->
  <path d="M512,92 C 540,96 566,104 584,116 L668,130 L584,144 C 566,156 540,164 512,168 L560,130 Z" fill="url(#gold)"/>
  <!-- makara curl barb tips -->
  <path d="M512,92 C 500,84 490,86 487,96 C 496,93 504,95 512,100 Z" fill="url(#gold)"/>
  <path d="M512,168 C 500,176 490,174 487,164 C 496,167 504,165 512,160 Z" fill="url(#gold)"/>
  <!-- prong ridges converging to tip -->
  <g fill="none" stroke="#67251A" stroke-width="1.5" opacity="0.55">
    <path d="M560,130 L650,130"/>
    <path d="M524,104 C 566,110 610,120 648,128"/>
    <path d="M524,156 C 566,150 610,140 648,132"/>
  </g>
</g>
</svg>