<svg xmlns="http://www.w3.org/2000/svg" viewBox="0 0 100 60" fill="none" stroke="#96702F" stroke-width="1.6" stroke-linejoin="round" stroke-linecap="round" role="img" aria-label="Lotus">
  <path d="M50,54 C37,37.7 42.9,12.7 50,6 C57.2,12.7 63,37.7 50,54 Z"/>
  <path d="M50,54 C30.8,48.2 22.9,25.4 25.5,16.3 C34.9,17.6 52.6,34.1 50,54 Z"/>
  <path d="M50,54 C47.4,34.1 65.1,17.6 74.5,16.3 C77.1,25.4 69.2,48.2 50,54 Z"/>
  <path d="M50,54 C32.9,60 15.6,47.2 12.9,39 C20.6,35 41.9,37.8 50,54 Z"/>
  <path d="M50,54 C58.1,37.8 79.4,35 87.1,39 C84.4,47.2 67.1,60 50,54 Z"/>
</svg>
